<?xml version="1.0" encoding="UTF-8"?>
<svg version="1.1" xmlns="http://www.w3.org/2000/svg" width="1280" height="270">
<path d="M0 0 C422.4 0 844.8 0 1280 0 C1280 89.1 1280 178.2 1280 270 C857.6 270 435.2 270 0 270 C0 180.9 0 91.8 0 0 Z " fill="#FEFEFE" transform="translate(0,0)"/>
<path d="M0 0 C20.46 0 40.92 0 62 0 C62 13.2 62 26.4 62 40 C54.74 40 47.48 40 40 40 C40 59.14 40 78.28 40 98 C62.11 98 84.22 98 107 98 C107 111.2 107 124.4 107 138 C71.69 138 36.38 138 0 138 C0 92.46 0 46.92 0 0 Z " fill="#213360" transform="translate(1,16)"/>
<path d="M0 0 C34.65 0 69.3 0 105 0 C105 45.21 105 90.42 105 137 C84.54 137 64.08 137 43 137 C43 123.8 43 110.6 43 97 C50.26 97 57.52 97 65 97 C65 78.19 65 59.38 65 40 C43.55 40 22.1 40 0 40 C0 26.8 0 13.6 0 0 Z " fill="#999999" transform="translate(129,114)"/>
<path d="M0 0 C10.9725 -0.12375 21.945 -0.2475 33.25 -0.375 C36.69083008 -0.42962402 40.13166016 -0.48424805 43.67675781 -0.54052734 C47.93896484 -0.56762695 47.93896484 -0.56762695 49.94598389 -0.57266235 C51.32224229 -0.58176487 52.69845849 -0.60263271 54.07440186 -0.63345337 C66.12784361 -0.8895113 76.5669387 1.70461052 85.53125 10.2734375 C91.68219825 17.50407348 92.89093724 24.96132481 92.421875 34.21484375 C91.56255874 41.92482016 88.48768599 47.51231401 83 53 C75.30344828 59 75.30344828 59 70 59 C74.29972388 67.93209116 78.84322041 76.66971611 83.8125 85.25 C84.28018799 86.05928955 84.74787598 86.8685791 85.22973633 87.70239258 C87.75486215 92.03616013 87.75486215 92.03616013 90.65112305 96.12402344 C92 98 92 98 92 100 C86.06 100 80.12 100 74 100 C73.030625 98.164375 72.06125 96.32875 71.0625 94.4375 C65.58230118 84.19277046 59.67984547 74.14612161 52.99609375 64.63671875 C52 63 52 63 52 61 C40.12 61 28.24 61 16 61 C16 73.87 16 86.74 16 100 C10.72 100 5.44 100 0 100 C0 67 0 34 0 0 Z " fill="#21335E" transform="translate(728,84)"/>
<path d="M0 0 C16.768125 -0.1546875 16.768125 -0.1546875 33.875 -0.3125 C37.38624512 -0.35802002 40.89749023 -0.40354004 44.51513672 -0.45043945 C48.84985352 -0.47302246 48.84985352 -0.47302246 50.88821411 -0.47721863 C52.29202228 -0.48482578 53.69580069 -0.5022626 55.09939575 -0.52787781 C66.85430635 -0.73141292 75.68381898 1.21493062 84.53125 9.33203125 C88.47086432 13.80600815 90.54511757 19.08652846 91 25 C91.08636719 25.87527344 91.17273437 26.75054687 91.26171875 27.65234375 C91.80238304 36.98781378 89.10816275 43.34408221 82.94921875 50.32421875 C74.31309469 58.62287437 65.36789745 60.61345115 53.6484375 60.390625 C52.50839264 60.38496521 51.36834778 60.37930542 50.1937561 60.37347412 C46.58705933 60.35125659 42.9813916 60.30108613 39.375 60.25 C36.91537903 60.22991617 34.45574233 60.21166872 31.99609375 60.1953125 C25.99668976 60.15485799 19.9994835 60.07653487 14 60 C14 72.87 14 85.74 14 99 C9.38 99 4.76 99 0 99 C0 66.33 0 33.66 0 0 Z " fill="#22335F" transform="translate(963,85)"/>
<path d="M0 0 C23.76 0 47.52 0 72 0 C72 23.76 72 47.52 72 72 C48.24 72 24.48 72 0 72 C0 48.24 0 24.48 0 0 Z " fill="#213360" transform="translate(80,197)"/>
<path d="M0 0 C23.76 0 47.52 0 72 0 C72 23.76 72 47.52 72 72 C48.24 72 24.48 72 0 72 C0 48.24 0 24.48 0 0 Z " fill="#9A9A9A" transform="translate(82,1)"/>
<path d="M0 0 C25.74 0 51.48 0 78 0 C78 4.95 78 9.9 78 15 C56.55 15 35.1 15 13 15 C13 21.93 13 28.86 13 36 C14.83691406 35.35160156 16.67382812 34.70320313 18.56640625 34.03515625 C26.10889632 31.72389626 33.09171817 31.36920594 40.9375 31.4375 C42.81985352 31.40172852 42.81985352 31.40172852 44.74023438 31.36523438 C54.16951713 31.37982326 61.40872211 33.35729818 70 37 C70 37.66 70 38.32 70 39 C70.74121094 39.2475 71.48242188 39.495 72.24609375 39.75 C78.44144597 42.56207477 82.73971188 48.73200767 85.5 54.8125 C88.48377535 63.40417455 87.88350537 71.59976893 84.13671875 79.81640625 C79.51074058 88.70273544 72.92743139 95.40890511 63.47265625 98.9453125 C41.60772517 105.7185092 14.9316122 102.69388521 -6 94 C-4.58707905 89.1725201 -2.57025846 85.2837641 0 81 C6.35296792 81.3996444 12.16785845 82.43182351 18.26171875 84.28125 C32.72169413 88.07673569 51.72952583 88.35882784 65.0078125 80.8671875 C68.92086924 78.01273549 70.61474466 74.54055919 72 70 C72.74189507 64.68308534 72.16338227 60.40956317 69 56 C60.48036479 48.76177334 51.93774632 47.66076138 41.125 47.75 C40.19558594 47.74226563 39.26617187 47.73453125 38.30859375 47.7265625 C32.78262904 47.74197663 27.66451719 48.27574513 22.27246094 49.49194336 C13.32683552 51.49192687 6.82545182 50.56553832 -2 48 C-2 31.98611713 -0.8882904 15.98922714 0 0 Z " fill="#253661" transform="translate(470,84)"/>
<path d="M0 0 C3.99068323 3.0927795 3.99068323 3.0927795 5.5 4.9375 C5.5 5.5975 5.5 6.2575 5.5 6.9375 C6.38945313 7.27394531 6.38945313 7.27394531 7.296875 7.6171875 C12.02153321 10.4486316 13.81831037 15.90870552 15.5 20.9375 C16.94534039 31.88541413 15.92196384 42.10396463 9.1015625 51.1015625 C1.90598722 59.63792018 -5.14752345 65.03784193 -16.45678711 66.12573242 C-27.63603579 66.94984785 -36.36190787 66.16763883 -45.5 58.9375 C-54.09261404 50.6481547 -58.80091217 42.10855076 -59.0625 30.125 C-58.95527512 20.53232406 -56.48737574 11.69742133 -49.875 4.5 C-35.7390341 -8.18474507 -16.15588315 -10.2057896 0 0 Z " fill="#FCFCFD" transform="translate(1248.5,104.0625)"/>
<path d="M0 0 C12.24232884 8.78508181 21.05750011 18.9466352 23.86328125 34.0546875 C25.51008295 51.13388865 20.4829407 65.63074599 9.8359375 78.96875 C6.64959888 82.33806648 2.9747026 84.91942794 -1.13671875 87.0546875 C-1.79671875 87.0546875 -2.45671875 87.0546875 -3.13671875 87.0546875 C-3.13671875 87.7146875 -3.13671875 88.3746875 -3.13671875 89.0546875 C-17.64205719 95.29354274 -33.89150942 97.05939605 -48.859375 91.125 C-50.96945268 90.13329968 -53.06202079 89.11838945 -55.13671875 88.0546875 C-55.13671875 87.3946875 -55.13671875 86.7346875 -55.13671875 86.0546875 C-55.98234375 85.8690625 -56.82796875 85.6834375 -57.69921875 85.4921875 C-64.91610596 82.47421649 -68.80317739 76.35529629 -72.94921875 69.9921875 C-73.33440674 69.40276367 -73.71959473 68.81333984 -74.11645508 68.20605469 C-81.04989047 57.20469674 -81.86110036 43.08059351 -79.453125 30.4765625 C-75.61548287 17.03685315 -68.1724054 6.33035198 -56.32421875 -1.2578125 C-38.12089214 -11.23490296 -17.70828837 -10.98222616 0 0 Z M-45.13671875 10.0546875 C-45.87148437 10.46847656 -46.60625 10.88226563 -47.36328125 11.30859375 C-55.59665306 16.36151591 -61.48634367 22.55606334 -64.4765625 31.86328125 C-66.87347324 43.45071362 -65.77603724 53.87574209 -59.32421875 63.859375 C-53.94330974 71.15921112 -47.86402764 76.30348992 -39.13671875 79.0546875 C-27.77815243 80.67304521 -15.94061193 79.72890097 -6.44140625 72.94140625 C2.61803084 65.52495181 7.95476364 57.94190673 9.3046875 46.22265625 C9.85911122 37.24422157 8.41233859 29.41100663 2.86328125 22.0546875 C0.80699355 20.85128224 0.80699355 20.85128224 -1.13671875 20.0546875 C-2.19921875 18.1171875 -2.19921875 18.1171875 -3.13671875 16.0546875 C-5.6190653 12.98247643 -8.51617339 11.87613087 -12.13671875 10.4296875 C-13.18859375 10.00429687 -14.24046875 9.57890625 -15.32421875 9.140625 C-24.24231905 5.69724738 -36.62390332 5.12915019 -45.13671875 10.0546875 Z " fill="#233560" transform="translate(1255.13671875,90.9453125)"/>
<path d="M0 0 C3.26437625 2.77566876 6.37791351 5.600999 9 9 C9 9.99 9 10.98 9 12 C7.68 12.33 6.36 12.66 5 13 C5 13.66 5 14.32 5 15 C1.04 16.98 1.04 16.98 -3 19 C-3.51949219 18.52949219 -4.03898438 18.05898437 -4.57421875 17.57421875 C-14.76192348 8.47872636 -22.71735482 6.46863404 -36.41015625 6.6875 C-41.32864325 7.11565991 -44.85694515 8.37389043 -49 11 C-49.69609375 11.43570313 -50.3921875 11.87140625 -51.109375 12.3203125 C-57.93264576 17.01451757 -63.18286513 23.20846695 -65.53125 31.24609375 C-67.00544962 39.9070165 -67.52191315 50.19714987 -63 58 C-62.57460938 58.74636719 -62.14921875 59.49273437 -61.7109375 60.26171875 C-58.51289619 65.43502087 -55.02716335 69.55429846 -50 73 C-49.401875 73.41378906 -48.80375 73.82757813 -48.1875 74.25390625 C-40.04294015 78.81931382 -28.8344981 78.25449132 -19.9296875 76.33984375 C-14.53114696 74.38519976 -10.26637486 71.18039394 -5.91015625 67.48828125 C-4 66 -4 66 -1 65 C-0.34 65.33 0.32 65.66 1 66 C1 66.66 1 67.32 1 68 C1.763125 68.28875 2.52625 68.5775 3.3125 68.875 C6 70 6 70 9 72 C8.30437274 76.69548399 5.79729932 79.58756935 2.12109375 82.4765625 C-12.39047837 92.60091514 -27.74273655 95.51438092 -45.22216797 92.63378906 C-58.77657568 89.22481123 -68.68954526 79.42258554 -76 68 C-80.74593511 59.67088388 -82.56983943 51.19715535 -82.5 41.6875 C-82.49427979 40.77250732 -82.48855957 39.85751465 -82.48266602 38.91479492 C-82.16419022 26.76446088 -77.6163993 17.33571307 -70 8 C-69.45085938 7.30261719 -68.90171875 6.60523437 -68.3359375 5.88671875 C-51.50264101 -13.20832022 -20.11887776 -13.92154488 0 0 Z " fill="#243560" transform="translate(699,92)"/>
<path d="M0 0 C13.2 0 26.4 0 40 0 C40 5.28 40 10.56 40 16 C47.26 16 54.52 16 62 16 C62 29.2 62 42.4 62 56 C41.54 56 21.08 56 0 56 C0 37.52 0 19.04 0 0 Z " fill="#9A9A9A" transform="translate(1,197)"/>
<path d="M0 0 C26.4 0 52.8 0 80 0 C80 4.95 80 9.9 80 15 C58.55 15 37.1 15 15 15 C15 22.92 15 30.84 15 39 C27.87 39 40.74 39 54 39 C54 44.28 54 49.56 54 55 C41.13 55 28.26 55 15 55 C15 69.85 15 84.7 15 100 C10.05 100 5.1 100 0 100 C0 67 0 34 0 0 Z " fill="#263762" transform="translate(364,84)"/>
<path d="M0 0 C16.7481832 -1.51949243 16.7481832 -1.51949243 21.7265625 1.83984375 C23.73515071 4.4559679 25.35972921 7.14013964 27 10 C28.36284147 11.73476702 29.7604461 13.44265918 31.1875 15.125 C35.07452644 19.86527615 38.94672663 24.61737501 42.8125 29.375 C43.36381592 30.05320801 43.91513184 30.73141602 44.4831543 31.43017578 C45.52247372 32.70960671 46.56024076 33.9903008 47.59619141 35.27246094 C48.84579452 36.8102334 50.1149351 38.33208285 51.38671875 39.8515625 C53 42 53 42 53 44 C55.64752004 41.42215154 57.94432065 39.08351902 60 36 C60.66 36 61.32 36 62 36 C62.20625 35.319375 62.4125 34.63875 62.625 33.9375 C64.06212725 30.86727361 65.88857816 28.68630204 68.14453125 26.1796875 C71.34091433 22.42477854 74.16308669 18.37599379 77.046875 14.37890625 C78.01367188 13.20134766 78.01367188 13.20134766 79 12 C79.66 12 80.32 12 81 12 C81.20625 11.319375 81.4125 10.63875 81.625 9.9375 C83.48749781 5.95852741 85.49976157 2.72663825 89 0 C92.34108492 -0.83293657 95.45826219 -0.67162887 98.875 -0.4375 C99.75414062 -0.40591797 100.63328125 -0.37433594 101.5390625 -0.34179688 C103.69416087 -0.25980944 105.847526 -0.13426323 108 0 C108 0.99 108 1.98 108 3 C107.319375 3.53625 106.63875 4.0725 105.9375 4.625 C102.72632725 7.22126733 100.57238181 9.95077751 98.09765625 13.23046875 C96.50215234 15.3370093 94.88772855 17.41815005 93.24609375 19.48828125 C92.76221191 20.09881348 92.27833008 20.7093457 91.77978516 21.33837891 C90.82359215 22.54340484 89.86628922 23.74755113 88.90771484 24.95068359 C86.0826736 28.5259517 83.52670012 32.20448076 81 36 C79.66666667 37.33333333 78.33333333 38.66666667 77 40 C76.67 40.99 76.34 41.98 76 43 C75.319375 43.680625 74.63875 44.36125 73.9375 45.0625 C73.495271 45.51069092 73.05304199 45.95888184 72.59741211 46.4206543 C71.44099924 47.56398837 70.23348843 48.65638221 68.99829102 49.71411133 C61.81483958 56.89259781 61.97351835 64.22053686 61.94140625 73.80859375 C61.96007701 75.74740431 61.97961889 77.68620666 62 79.625 C61.99189791 81.60288271 61.98021132 83.58075415 61.96484375 85.55859375 C61.93517288 90.37325923 61.9542141 95.18548492 62 100 C57.05 100 52.1 100 47 100 C47.01160156 98.77482666 47.02320313 97.54965332 47.03515625 96.28735352 C47.06787928 91.70774776 47.04771615 87.12959167 47.01220703 82.55004883 C47.00413488 80.5744697 47.0100863 78.59877844 47.03076172 76.62329102 C47.67248137 63.72430528 47.67248137 63.72430528 42.2890625 52.59765625 C40.88118642 51.37290448 39.45265932 50.17128684 38 49 C36.97136184 47.79850137 35.97590238 46.56742503 35.0234375 45.3046875 C34.58370605 44.7379834 34.14397461 44.1712793 33.69091797 43.58740234 C33.25666504 43.02230957 32.82241211 42.4572168 32.375 41.875 C28.23492023 36.53520686 28.23492023 36.53520686 23.875 31.375 C20.48634001 27.51192761 17.51242941 23.34249408 14.45703125 19.21484375 C11.1213786 14.78227718 7.49225292 10.59832074 3.87109375 6.3984375 C2 4 2 4 2 2 C1.34 2 0.68 2 0 2 C0 1.34 0 0.68 0 0 Z " fill="#253661" transform="translate(838,84)"/>
<path d="M0 0 C20.46 0 40.92 0 62 0 C62 13.2 62 26.4 62 40 C41.54 40 21.08 40 0 40 C0 26.8 0 13.6 0 0 Z " fill="#223460" transform="translate(172,16)"/>
<path d="M0 0 C28.38 0 56.76 0 86 0 C86 4.95 86 9.9 86 15 C74.12 15 62.24 15 50 15 C50 42.72 50 70.44 50 99 C45.38 99 40.76 99 36 99 C36 71.28 36 43.56 36 15 C24.12 15 12.24 15 0 15 C0 10.05 0 5.1 0 0 Z " fill="#243661" transform="translate(1073,84)"/>
<path d="M0 0 C7.11771913 -0.11504934 14.2321881 -0.21451634 21.35009766 -0.2746582 C23.76915442 -0.29973872 26.18813589 -0.33381149 28.60693359 -0.37719727 C32.09231184 -0.43813045 35.57668464 -0.46627563 39.0625 -0.48828125 C40.13677246 -0.51408768 41.21104492 -0.5398941 42.31787109 -0.56648254 C49.18974921 -0.56902572 53.6871751 0.52827673 59 5 C62.62504165 8.85160676 62.56458053 13.19687496 62.4140625 18.2734375 C61.78533633 22.41354004 60.17743622 25.28070574 57 28 C51.29147877 31.7835411 45.85395923 31.38713642 39.2578125 31.29296875 C38.13430389 31.28872391 37.01079529 31.28447906 35.85324097 31.28010559 C32.27691337 31.2633589 28.70115631 31.22571296 25.125 31.1875 C22.69532066 31.17244803 20.26563245 31.15876052 17.8359375 31.14648438 C11.89023017 31.11602481 5.94575117 31.05729311 0 31 C0 20.77 0 10.54 0 0 Z " fill="#F9FAFB" transform="translate(743,99)"/>
<path d="M0 0 C7.01127527 -0.06893825 14.02137047 -0.12865397 21.03271484 -0.16479492 C23.41687001 -0.179864 25.80099753 -0.20032291 28.18505859 -0.22631836 C31.61562937 -0.26278337 35.045833 -0.27974552 38.4765625 -0.29296875 C40.07064438 -0.31619453 40.07064438 -0.31619453 41.69692993 -0.33988953 C48.906338 -0.34152217 53.28347792 0.58531371 58.8125 5.5 C62.37354188 9.56976215 62.34897749 13.30649651 62.2734375 18.49609375 C61.86002561 22.28176552 60.57153267 24.23065712 58 27 C51.827744 31.53463422 46.6657389 31.53417602 39.16015625 31.390625 C38.03806259 31.38496521 36.91596893 31.37930542 35.75987244 31.37347412 C32.19363849 31.35117341 28.62842772 31.30098649 25.0625 31.25 C22.63738435 31.22992695 20.21225288 31.2116776 17.78710938 31.1953125 C11.8573664 31.15473951 5.92982168 31.07643164 0 31 C0 20.77 0 10.54 0 0 Z " fill="#F9FAFB" transform="translate(977,99)"/>
<path d="M0 0 C22.44 0 44.88 0 68 0 C68 0.33 68 0.66 68 1 C67.25497726 1.00808685 66.50995453 1.01617371 65.74235535 1.02450562 C58.72353809 1.10242448 51.7049145 1.18970679 44.68635082 1.28752708 C41.07796771 1.33748759 37.46961383 1.38381744 33.86108398 1.421875 C30.37908872 1.45873124 26.89733823 1.5050917 23.41555214 1.55806351 C21.43972886 1.58563386 19.463776 1.6033425 17.48783875 1.62094116 C16.28682022 1.64081085 15.0858017 1.66068054 13.84838867 1.68115234 C12.25954109 1.70113785 12.25954109 1.70113785 10.63859558 1.7215271 C7.77033327 1.81777733 7.77033327 1.81777733 5 4 C4.68407132 6.89780022 4.56263499 9.58638771 4.56762695 12.48876953 C4.5574353 13.36688293 4.54724365 14.24499634 4.53674316 15.14971924 C4.50647712 18.06081408 4.49732655 20.97158063 4.48828125 23.8828125 C4.47144464 25.89778753 4.4532958 27.91275199 4.43388367 29.92770386 C4.38626697 35.23773903 4.3565332 40.54773138 4.33044434 45.85791016 C4.30069755 51.27384911 4.25414714 56.68964029 4.20898438 62.10546875 C4.12281856 72.73690205 4.05553248 83.36836567 4 94 C4.928125 93.7215625 4.928125 93.7215625 5.875 93.4375 C8 93 8 93 10 94 C10 94.99 10 95.98 10 97 C8.02 97 6.04 97 4 97 C4 97.66 4 98.32 4 99 C7.63 99 11.26 99 15 99 C15 86.13 15 73.26 15 60 C27.21 60 39.42 60 52 60 C52 60.33 52 60.66 52 61 C40.12 61 28.24 61 16 61 C16 73.87 16 86.74 16 100 C10.72 100 5.44 100 0 100 C0 67 0 34 0 0 Z " fill="#556183" transform="translate(728,84)"/>
<path d="M0 0 C3.08283443 -0.14554346 6.16478439 -0.23413821 9.25 -0.3125 C10.12269531 -0.35439453 10.99539063 -0.39628906 11.89453125 -0.43945312 C18.38412497 -0.56330033 18.38412497 -0.56330033 21.5625 2.34375 C22.98300874 4.96860311 23.66242975 7.04626033 24 10 C23.37351562 10.25394531 22.74703125 10.50789063 22.1015625 10.76953125 C21.28429687 11.11371094 20.46703125 11.45789063 19.625 11.8125 C18.81289063 12.14894531 18.00078125 12.48539063 17.1640625 12.83203125 C14.69852542 13.94439082 14.69852542 13.94439082 13 17 C11.16064138 14.87996003 9.32843267 12.75442773 7.5 10.625 C6.71302734 9.72007813 6.71302734 9.72007813 5.91015625 8.796875 C2 4.2265625 2 4.2265625 2 2 C1.34 2 0.68 2 0 2 C0 1.34 0 0.68 0 0 Z " fill="#24355F" transform="translate(838,84)"/>
<path d="M0 0 C26.4 0 52.8 0 80 0 C80 4.62 80 9.24 80 14 C69.44 14 58.88 14 48 14 C48.33 13.34 48.66 12.68 49 12 C58.57 12.33 68.14 12.66 78 13 C78 9.37 78 5.74 78 2 C77.01 2.33 76.02 2.66 75 3 C75 2.34 75 1.68 75 1 C50.25 1 25.5 1 0 1 C0 0.67 0 0.34 0 0 Z " fill="#233152" transform="translate(1078,85)"/>
<path d="M0 0 C2.97 0 5.94 0 9 0 C9 4.62 9 9.24 9 14 C-10.47 14 -29.94 14 -50 14 C-50 13.67 -50 13.34 -50 13 C-49.30064835 12.98969254 -48.60129669 12.97938507 -47.88075256 12.96876526 C-41.30286337 12.87094968 -34.7250658 12.76845843 -28.14733219 12.66066074 C-24.76532878 12.60540198 -21.38331676 12.55197744 -18.0012207 12.50268555 C-14.11660573 12.44599054 -10.23214122 12.38142415 -6.34765625 12.31640625 C-4.51800072 12.29133751 -4.51800072 12.29133751 -2.65138245 12.26576233 C-1.53029587 12.24581711 -0.40920929 12.22587189 0.74584961 12.20532227 C2.23476967 12.18200584 2.23476967 12.18200584 3.75376892 12.15821838 C5.96974297 12.24881556 5.96974297 12.24881556 7 11 C7.23287008 9.31816052 7.41264166 7.6287584 7.5625 5.9375 C7.64628906 5.01839844 7.73007812 4.09929687 7.81640625 3.15234375 C7.90728516 2.08693359 7.90728516 2.08693359 8 1 C5.36 1 2.72 1 0 1 C0 0.67 0 0.34 0 0 Z " fill="#23304E" transform="translate(434,85)"/>
<path d="M0 0 C1.48828125 0.98828125 1.48828125 0.98828125 3 3 C3.21714241 5.81127043 3.28284276 8.3883345 3.1875 11.1875 C3.17396484 11.93708984 3.16042969 12.68667969 3.14648438 13.45898438 C3.11118539 15.30629767 3.05737917 17.15324066 3 19 C2.34 19 1.68 19 1 19 C0.67 20.32 0.34 21.64 0 23 C-1.21074074 15.19744856 -0.72526532 7.84402334 0 0 Z " fill="#303D64" transform="translate(1276,122)"/>
<path d="M0 0 C0.33 0 0.66 0 1 0 C1.16873478 1.43725871 1.33490737 2.87481838 1.5 4.3125 C1.5928125 5.11300781 1.685625 5.91351563 1.78125 6.73828125 C2 9 2 9 2 12 C2.99 11.67 3.98 11.34 5 11 C5 11.66 5 12.32 5 13 C13.91 13 22.82 13 32 13 C32.33 12.34 32.66 11.68 33 11 C33 11.99 33 12.98 33 14 C22.11 14 11.22 14 0 14 C0 9.38 0 4.76 0 0 Z " fill="#253151" transform="translate(1074,85)"/>
<path d="M0 0 C0.33 0.66 0.66 1.32 1 2 C0.36971413 3.68076231 -0.29788106 5.34795544 -1 7 C-1 7.66 -1 8.32 -1 9 C-1.99 9 -2.98 9 -4 9 C-4 9.99 -4 10.98 -4 12 C-7.96 13.98 -7.96 13.98 -12 16 C-10 12 -10 12 -8 9 C-7.34 9 -6.68 9 -6 9 C-5.7525 8.2575 -5.505 7.515 -5.25 6.75 C-3.90852699 3.79875938 -2.39094474 2.15185026 0 0 Z " fill="#3C486D" transform="translate(906,111)"/>
<path d="M0 0 C-1.26041675 3.78125025 -2.68870545 4.01322327 -6 6 C-6.33 6.99 -6.66 7.98 -7 9 C-9.76264289 9.59732819 -12.16032769 10 -15 10 C-13.58829091 8.70291686 -12.17041804 7.41254022 -10.75 6.125 C-9.96109375 5.40570313 -9.1721875 4.68640625 -8.359375 3.9453125 C-5.69536409 1.74882669 -3.5241306 0 0 0 Z " fill="#3C486B" transform="translate(646,88)"/>
<path d="M0 0 C0 2 0 2 -1.390625 3.47265625 C-2.31101562 4.25962891 -2.31101562 4.25962891 -3.25 5.0625 C-3.85328125 5.58972656 -4.4565625 6.11695312 -5.078125 6.66015625 C-7.11754126 8.08194441 -8.5277886 8.74971413 -11 9 C-11.66 8.34 -12.32 7.68 -13 7 C-11.54261898 6.01941648 -10.08406325 5.04057868 -8.625 4.0625 C-7.81289062 3.51722656 -7.00078125 2.97195312 -6.1640625 2.41015625 C-2.46537396 0 -2.46537396 0 0 0 Z " fill="#364468" transform="translate(1206,87)"/>
<path d="M0 0 C6.27 0 12.54 0 19 0 C19 0.33 19 0.66 19 1 C13.06 1.495 13.06 1.495 7 2 C6.67 3.65 6.34 5.3 6 7 C4 5.625 4 5.625 2 4 C2 3.34 2 2.68 2 2 C1.34 2 0.68 2 0 2 C0 1.34 0 0.68 0 0 Z " fill="#57607D" transform="translate(838,84)"/>
<path d="M0 0 C0 0.99 0 1.98 0 3 C-1.98 3 -3.96 3 -6 3 C-6 3.66 -6 4.32 -6 5 C-2.37 5 1.26 5 5 5 C5 5.33 5 5.66 5 6 C0.38 6 -4.24 6 -9 6 C-8.34 5.67 -7.68 5.34 -7 5 C-6.835 4.175 -6.67 3.35 -6.5 2.5 C-6.335 1.675 -6.17 0.85 -6 0 C-3.50907189 -1.24546405 -2.58919267 -0.7767578 0 0 Z " fill="#35436C" transform="translate(738,178)"/>
<path d="M0 0 C2 1 2 1 5 4 C1.04 5.98 1.04 5.98 -3 8 C-4.32 6.35 -5.64 4.7 -7 3 C-5.02 3 -3.04 3 -1 3 C-1.33 2.34 -1.66 1.68 -2 1 C-1.34 0.67 -0.68 0.34 0 0 Z " fill="#2B3A63" transform="translate(699,103)"/>
<path d="M0 0 C0.33 0.66 0.66 1.32 1 2 C2.32 1.67 3.64 1.34 5 1 C3.75 3 3.75 3 2 5 C0.68 5 -0.64 5 -2 5 C-2.33 5.99 -2.66 6.98 -3 8 C-3.103125 7.360625 -3.20625 6.72125 -3.3125 6.0625 C-3.539375 5.381875 -3.76625 4.70125 -4 4 C-4.99 3.67 -5.98 3.34 -7 3 C-3.535 2.505 -3.535 2.505 0 2 C0 1.34 0 0.68 0 0 Z " fill="#2F3E62" transform="translate(800,138)"/>
<path d="M0 0 C2.62527189 -0.05382106 5.24944713 -0.09358313 7.875 -0.125 C8.62136719 -0.14175781 9.36773437 -0.15851563 10.13671875 -0.17578125 C12.09194461 -0.1933959 14.04742021 -0.10320189 16 0 C16.66 0.66 17.32 1.32 18 2 C11.40609458 2.99989549 6.38232875 3.00925164 0 1 C0 0.67 0 0.34 0 0 Z " fill="#374165" transform="translate(472,132)"/>
<path d="M0 0 C0.66 0.33 1.32 0.66 2 1 C2 1.99 2 2.98 2 4 C-0.29160319 4.02692484 -2.58329546 4.04636124 -4.875 4.0625 C-6.15117188 4.07410156 -7.42734375 4.08570313 -8.7421875 4.09765625 C-12 4 -12 4 -14 3 C-13.67 2.34 -13.34 1.68 -13 1 C-10.98177083 1.29296875 -8.96354167 1.5859375 -6.9453125 1.87890625 C-4.91859333 2.1684297 -4.91859333 2.1684297 -3 1 C-2.01 1.33 -1.02 1.66 0 2 C0 1.34 0 0.68 0 0 Z " fill="#233153" transform="translate(816,179)"/>
<path d="M0 0 C0.268125 0.639375 0.53625 1.27875 0.8125 1.9375 C1.88667752 4.33131686 1.88667752 4.33131686 5 5 C6.1875 7.5625 6.1875 7.5625 7 10 C6.01 10.495 6.01 10.495 5 11 C2.69 8.36 0.38 5.72 -2 3 C-1.34 2.67 -0.68 2.34 0 2 C0 1.34 0 0.68 0 0 Z " fill="#3B456A" transform="translate(1254,105)"/>
<path d="M0 0 C1.875 0.1875 1.875 0.1875 4 1 C5.25 3.5625 5.25 3.5625 6 6 C5.0409375 5.566875 5.0409375 5.566875 4.0625 5.125 C0.11589708 3.6752275 -3.8874607 2.84221938 -8 2 C-4.90279155 1.12159004 -3.09354597 1.00564594 0 2 C0 1.34 0 0.68 0 0 Z " fill="#455175" transform="translate(682,97)"/>
<path d="M0 0 C3.81684226 1.55500981 6.19195732 4.03595495 9 7 C7.02 7.33 5.04 7.66 3 8 C0 2.25 0 2.25 0 0 Z " fill="#2F3F65" transform="translate(1254,91)"/>
<path d="M0 0 C3.4375 1.1875 3.4375 1.1875 7 3 C7.33 4.65 7.66 6.3 8 8 C5.03 6.35 2.06 4.7 -1 3 C-0.67 2.01 -0.34 1.02 0 0 Z " fill="#334061" transform="translate(528,129)"/>
<path d="M0 0 C0.66 0.99 1.32 1.98 2 3 C0.66666667 4.33333333 -0.66666667 5.66666667 -2 7 C-2.845625 7.9075 -3.69125 8.815 -4.5625 9.75 C-7 12 -7 12 -10 12 C-6.7 8.04 -3.4 4.08 0 0 Z " fill="#D2D7E3" transform="translate(938,94)"/>
<path d="M0 0 C2.4375 0.75 2.4375 0.75 5 2 C5.8125 4.125 5.8125 4.125 6 6 C5.01 6.495 5.01 6.495 4 7 C2.02 5.68 0.04 4.36 -2 3 C-1.01 2.67 -0.02 2.34 1 2 C0.67 1.34 0.34 0.68 0 0 Z " fill="#38466A" transform="translate(1194,170)"/>
<path d="M0 0 C4.29 0 8.58 0 13 0 C13 0.66 13 1.32 13 2 C4.57142857 3.42857143 4.57142857 3.42857143 0 1 C0 0.67 0 0.34 0 0 Z " fill="#212E59" transform="translate(659,171)"/>
<path d="M0 0 C3.68754757 0.49831724 5.60490662 1.10067643 8 4 C7.34 5.32 6.68 6.64 6 8 C4.02 5.36 2.04 2.72 0 0 Z " fill="#2D3C60" transform="translate(871,126)"/>
<path d="M0 0 C2.74277578 3.19990508 4.6302836 6.00499382 6 10 C5.34 10.66 4.68 11.32 4 12 C4 10.68 4 9.36 4 8 C3.01 7.67 2.02 7.34 1 7 C1 6.01 1 5.02 1 4 C0.34 4 -0.32 4 -1 4 C-0.67 2.68 -0.34 1.36 0 0 Z " fill="#354565" transform="translate(803,155)"/>
<path d="M0 0 C1.32 1.32 2.64 2.64 4 4 C3.34 5.65 2.68 7.3 2 9 C1.34 9 0.68 9 0 9 C-1.10844919 5.67465243 -0.84454356 3.37817425 0 0 Z " fill="#2F3D67" transform="translate(881,115)"/>
<path d="M0 0 C0.33 0 0.66 0 1 0 C1 1.65 1 3.3 1 5 C1.7425 4.67 2.485 4.34 3.25 4 C6 3 6 3 10 3 C10 3.66 10 4.32 10 5 C3.375 7.125 3.375 7.125 0 6 C0 4.02 0 2.04 0 0 Z " fill="#3B4868" transform="translate(482,115)"/>
<path d="M0 0 C1.5625 1.75 1.5625 1.75 3 4 C2.75 5.9375 2.75 5.9375 2 8 C1.65939189 9.66519519 1.32441604 11.33157466 1 13 C0.67 13 0.34 13 0 13 C-1.35064935 2.7012987 -1.35064935 2.7012987 0 0 Z " fill="#455278" transform="translate(805,104)"/>
<path d="M0 0 C0.99 0.66 1.98 1.32 3 2 C2.25 3.9375 2.25 3.9375 1 6 C-1.125 6.75 -1.125 6.75 -3 7 C-3 6.34 -3 5.68 -3 5 C-3.66 4.67 -4.32 4.34 -5 4 C-3.35 2.68 -1.7 1.36 0 0 Z " fill="#354367" transform="translate(1252,160)"/>
<path d="M0 0 C1.5625 1.8125 1.5625 1.8125 3 4 C2.67 4.99 2.34 5.98 2 7 C0.68 6.67 -0.64 6.34 -2 6 C-2 5.34 -2 4.68 -2 4 C-1.34 4 -0.68 4 0 4 C0 2.68 0 1.36 0 0 Z M-5 6 C-4.01 6.33 -3.02 6.66 -2 7 C-2.99 7 -3.98 7 -5 7 C-5 6.67 -5 6.34 -5 6 Z " fill="#293A63" transform="translate(814,174)"/>
<path d="M0 0 C4.54680927 0.54561711 8.7725266 1.18822569 13 3 C13.33 3.99 13.66 4.98 14 6 C13.360625 5.731875 12.72125 5.46375 12.0625 5.1875 C8.08797739 3.64635858 4.05115505 2.32390688 0 1 C0 0.67 0 0.34 0 0 Z " fill="#5D6B85" transform="translate(1234,98)"/>
<path d="M0 0 C1.65 1.32 3.3 2.64 5 4 C4.67 4.66 4.34 5.32 4 6 C1.9375 6.625 1.9375 6.625 0 7 C0 4.66666667 0 2.33333333 0 0 Z " fill="#3C4A6D" transform="translate(810,92)"/>
<path d="M0 0 C0.99 0.33 1.98 0.66 3 1 C2.375 2.875 2.375 2.875 1 5 C-2.125 6.25 -2.125 6.25 -5 7 C-1.125 1.125 -1.125 1.125 0 0 Z " fill="#404E6F" transform="translate(924,88)"/>
<path d="M0 0 C0.33 0.66 0.66 1.32 1 2 C1.66 2.33 2.32 2.66 3 3 C1.02 4.32 -0.96 5.64 -3 7 C-3 3 -3 3 -1.5 1.25 C-1.005 0.8375 -0.51 0.425 0 0 Z " fill="#324166" transform="translate(701,169)"/>
<path d="M0 0 C-1.98 0.66 -3.96 1.32 -6 2 C-6 2.99 -6 3.98 -6 5 C-6.66 5 -7.32 5 -8 5 C-8 4.34 -8 3.68 -8 3 C-9.65 3 -11.3 3 -13 3 C-13 2.67 -13 2.34 -13 2 C-11.21089097 1.47044766 -9.41860852 0.9516063 -7.625 0.4375 C-6.62726562 0.14746094 -5.62953125 -0.14257812 -4.6015625 -0.44140625 C-2 -1 -2 -1 0 0 Z " fill="#495277" transform="translate(533,168)"/>
<path d="M0 0 C2.5 1.375 2.5 1.375 5 3 C5 3.66 5 4.32 5 5 C2.33333333 5 -0.33333333 5 -3 5 C-2.67 4.34 -2.34 3.68 -2 3 C-1.34 3.33 -0.68 3.66 0 4 C-0.33 3.01 -0.66 2.02 -1 1 C-0.67 0.67 -0.34 0.34 0 0 Z " fill="#1C305D" transform="translate(699,166)"/>
<path d="M0 0 C0.66666667 1.33333333 1.33333333 2.66666667 2 4 C2.53625 5.03125 3.0725 6.0625 3.625 7.125 C5 10 5 10 5 12 C2 11 2 11 0.8125 9.375 C-0.27499354 6.19617272 -0.1282071 3.33338467 0 0 Z " fill="#434E6C" transform="translate(632,142)"/>
<path d="M0 0 C4.29 0.66 8.58 1.32 13 2 C13 2.33 13 2.66 13 3 C9.7 3.33 6.4 3.66 3 4 C3 3.34 3 2.68 3 2 C2.01 1.67 1.02 1.34 0 1 C0 0.67 0 0.34 0 0 Z " fill="#313F5F" transform="translate(485,168)"/>
<path d="M0 0 C0.33 0.66 0.66 1.32 1 2 C1.66 2.33 2.32 2.66 3 3 C1.02 4.32 -0.96 5.64 -3 7 C-3.66 6.67 -4.32 6.34 -5 6 C-3.35 4.02 -1.7 2.04 0 0 Z " fill="#475172" transform="translate(916,98)"/>
<path d="M0 0 C2.91517292 1.07401108 4.77810176 1.77810176 7 4 C4 5 4 5 0.8125 3.5625 C-0.115625 3.046875 -1.04375 2.53125 -2 2 C-1.34 1.34 -0.68 0.68 0 0 Z " fill="#475471" transform="translate(1202,177)"/>
<path d="M0 0 C-0.33 2.64 -0.66 5.28 -1 8 C-1.66 7.67 -2.32 7.34 -3 7 C-3.625 3.9375 -3.625 3.9375 -4 1 C-2 0 -2 0 0 0 Z " fill="#364465" transform="translate(1181,147)"/>
<path d="M0 0 C0.66 0.33 1.32 0.66 2 1 C0.02 3.97 0.02 3.97 -2 7 C-2.66 6.01 -3.32 5.02 -4 4 C-3.67 3.01 -3.34 2.02 -3 1 C-2.01 0.67 -1.02 0.34 0 0 Z " fill="#2C395B" transform="translate(927,105)"/>
<path d="M0 0 C2.4375 1.1875 2.4375 1.1875 3.4375 3.1875 C1.6875 3.9375 1.6875 3.9375 -0.5625 4.1875 C-2.8125 2.25 -2.8125 2.25 -4.5625 0.1875 C-2.5625 -0.8125 -2.5625 -0.8125 0 0 Z " fill="#303E62" transform="translate(696.5625,90.8125)"/>
<path d="M0 0 C-1.13719419 3.41158256 -2.04342944 4.11854601 -5 6 C-5.66 6 -6.32 6 -7 6 C-4.84615385 0 -4.84615385 0 0 0 Z " fill="#3B476B" transform="translate(1264,169)"/>
<path d="M0 0 C1 3 1 3 0.0625 5.1875 C-0.4634375 6.0846875 -0.4634375 6.0846875 -1 7 C-1.99 7 -2.98 7 -4 7 C-2.92598892 4.08482708 -2.22189824 2.22189824 0 0 Z " fill="#D3DBE2" transform="translate(904,137)"/>
<path d="M0 0 C1.32 1.32 2.64 2.64 4 4 C3.67 4.66 3.34 5.32 3 6 C2.34 6 1.68 6 1 6 C1 6.66 1 7.32 1 8 C0.34 7.67 -0.32 7.34 -1 7 C-0.67 4.69 -0.34 2.38 0 0 Z " fill="#314164" transform="translate(877,110)"/>
<path d="M0 0 C1.98 0.99 3.96 1.98 6 3 C5.01 4.485 5.01 4.485 4 6 C2.68 5.34 1.36 4.68 0 4 C0 2.68 0 1.36 0 0 Z " fill="#2E3B60" transform="translate(1036,87)"/>
<path d="M0 0 C0.99 0.33 1.98 0.66 3 1 C3.6875 3.0625 3.6875 3.0625 4 5 C3.01 5.33 2.02 5.66 1 6 C0.34 4.35 -0.32 2.7 -1 1 C-0.67 0.67 -0.34 0.34 0 0 Z " fill="#1F2E55" transform="translate(858,89)"/>
<path d="M0 0 C1.98 0.99 3.96 1.98 6 3 C5.01 3.66 4.02 4.32 3 5 C1.68 4.34 0.36 3.68 -1 3 C-0.67 2.01 -0.34 1.02 0 0 Z " fill="#2E4063" transform="translate(1202,162)"/>
<path d="M0 0 C0.66 0 1.32 0 2 0 C1.67 2.31 1.34 4.62 1 7 C0.01 6.34 -0.98 5.68 -2 5 C-2 4.34 -2 3.68 -2 3 C-1.34 3 -0.68 3 0 3 C0 2.01 0 1.02 0 0 Z " fill="#354369" transform="translate(1189,163)"/>
<path d="M0 0 C0.33 0 0.66 0 1 0 C0.53199289 4.05606165 0.12046792 7.46588679 -2 11 C-3.125 6.25 -3.125 6.25 -2 4 C-1.34 4 -0.68 4 0 4 C0 2.68 0 1.36 0 0 Z " fill="#38456C" transform="translate(1277,141)"/>
<path d="M0 0 C2.31 0.33 4.62 0.66 7 1 C7 1.99 7 2.98 7 4 C6.01 4.33 5.02 4.66 4 5 C2.68 3.35 1.36 1.7 0 0 Z " fill="#3B4567" transform="translate(692,106)"/>
<path d="M0 0 C0.99 0.33 1.98 0.66 3 1 C1.63016497 4.16115776 1.0109362 4.9927092 -2 7 C-1.125 1.125 -1.125 1.125 0 0 Z " fill="#293757" transform="translate(1198,105)"/>
<path d="M0 0 C0.66 0.33 1.32 0.66 2 1 C1.43628586 4.26954202 0.50037734 5.82575883 -2 8 C-2 4.23312136 -1.76462683 3.08809695 0 0 Z " fill="#1C2C57" transform="translate(629,101)"/>
<path d="M0 0 C0.66 0.33 1.32 0.66 2 1 C1.01 2.485 1.01 2.485 0 4 C0.66 4.33 1.32 4.66 2 5 C0.02 5.99 0.02 5.99 -2 7 C-2 6.34 -2 5.68 -2 5 C-2.66 4.67 -3.32 4.34 -4 4 C-3.01 3.67 -2.02 3.34 -1 3 C-0.67 2.01 -0.34 1.02 0 0 Z " fill="#303F69" transform="translate(1208,97)"/>
<path d="M0 0 C0.66 0.99 1.32 1.98 2 3 C-0.475 4.485 -0.475 4.485 -3 6 C-3.33 4.68 -3.66 3.36 -4 2 C-2.68 1.34 -1.36 0.68 0 0 Z " fill="#2A3860" transform="translate(633,98)"/>
<path d="M0 0 C0.99 0.33 1.98 0.66 3 1 C1.35 2.65 -0.3 4.3 -2 6 C-2 4.68 -2 3.36 -2 2 C-1.34 2 -0.68 2 0 2 C0 1.34 0 0.68 0 0 Z " fill="#333B62" transform="translate(935,94)"/>
</svg>
